<mxfile host="app.diagrams.net" version="24.7.7">
  <diagram name="Page-1" id="9Sfl5IgZ2U1bl2HwK6Pl">
    <mxGraphModel dx="1646" dy="965" grid="1" gridSize="10" guides="1" tooltips="1" connect="1" arrows="1" fold="1" page="1" pageScale="1" pageWidth="413" pageHeight="291" math="0" shadow="0">
      <root>
        <mxCell id="0" />
        <mxCell id="1" parent="0" />
        <mxCell id="gz_wj4TYew4OjZAv-vh--49" value="" style="endArrow=none;html=1;rounded=0;exitX=0.5;exitY=0;exitDx=0;exitDy=0;exitPerimeter=0;entryX=0.31;entryY=0.8;entryDx=0;entryDy=0;entryPerimeter=0;strokeColor=#808080;" parent="1" source="qpZ_DzZxJ8dWOxUiVUUP-133" target="gz_wj4TYew4OjZAv-vh--1" edge="1">
          <mxGeometry width="50" height="50" relative="1" as="geometry">
            <mxPoint x="305" y="200" as="sourcePoint" />
            <mxPoint x="420" y="219" as="targetPoint" />
          </mxGeometry>
        </mxCell>
        <mxCell id="gz_wj4TYew4OjZAv-vh--50" value="" style="endArrow=none;html=1;rounded=0;entryX=0.5;entryY=0;entryDx=0;entryDy=0;entryPerimeter=0;exitX=0.8;exitY=0.8;exitDx=0;exitDy=0;exitPerimeter=0;strokeColor=#808080;" parent="1" source="gz_wj4TYew4OjZAv-vh--1" target="qpZ_DzZxJ8dWOxUiVUUP-141" edge="1">
          <mxGeometry width="50" height="50" relative="1" as="geometry">
            <mxPoint x="370" y="269" as="sourcePoint" />
            <mxPoint x="655" y="200" as="targetPoint" />
          </mxGeometry>
        </mxCell>
        <mxCell id="gz_wj4TYew4OjZAv-vh--1" value="Internet" style="ellipse;shape=cloud;whiteSpace=wrap;html=1;fillColor=none;" parent="1" vertex="1">
          <mxGeometry x="250" width="390" height="110" as="geometry" />
        </mxCell>
        <mxCell id="qpZ_DzZxJ8dWOxUiVUUP-60" style="edgeStyle=orthogonalEdgeStyle;rounded=1;orthogonalLoop=1;jettySize=auto;html=1;exitX=0;exitY=0.75;exitDx=0;exitDy=0;entryX=0.75;entryY=0;entryDx=0;entryDy=0;strokeColor=#d79b00;shadow=1;dashed=1;fillColor=#ffe6cc;" edge="1" parent="1" source="qpZ_DzZxJ8dWOxUiVUUP-122" target="qpZ_DzZxJ8dWOxUiVUUP-56">
          <mxGeometry relative="1" as="geometry">
            <mxPoint x="390" y="644.5" as="sourcePoint" />
          </mxGeometry>
        </mxCell>
        <mxCell id="qpZ_DzZxJ8dWOxUiVUUP-61" style="edgeStyle=orthogonalEdgeStyle;rounded=1;orthogonalLoop=1;jettySize=auto;html=1;exitX=1;exitY=0.75;exitDx=0;exitDy=0;entryX=0.25;entryY=0;entryDx=0;entryDy=0;strokeColor=#d79b00;shadow=1;dashed=1;fillColor=#ffe6cc;" edge="1" parent="1" source="qpZ_DzZxJ8dWOxUiVUUP-74" target="qpZ_DzZxJ8dWOxUiVUUP-56">
          <mxGeometry relative="1" as="geometry">
            <mxPoint x="220" y="644.5" as="sourcePoint" />
          </mxGeometry>
        </mxCell>
        <mxCell id="qpZ_DzZxJ8dWOxUiVUUP-63" value="bitcoind" style="rounded=1;whiteSpace=wrap;html=1;verticalAlign=top;arcSize=12;absoluteArcSize=1;labelBackgroundColor=#ECECEC;fillColor=none;" vertex="1" parent="1">
          <mxGeometry x="240" y="620" width="130" height="70" as="geometry" />
        </mxCell>
        <mxCell id="qpZ_DzZxJ8dWOxUiVUUP-65" value="&lt;div&gt;lndetcd1&lt;/div&gt;" style="rounded=1;whiteSpace=wrap;html=1;align=center;verticalAlign=top;labelPosition=center;verticalLabelPosition=middle;spacingLeft=0;arcSize=12;absoluteArcSize=1;fillColor=none;" vertex="1" parent="1">
          <mxGeometry x="90" y="420" width="130" height="151" as="geometry" />
        </mxCell>
        <mxCell id="qpZ_DzZxJ8dWOxUiVUUP-70" value="etcd" style="rounded=1;whiteSpace=wrap;html=1;fillColor=#b5dcf3;strokeColor=#2671a1;noLabel=1;" vertex="1" parent="1">
          <mxGeometry x="100" y="530" width="110" height="30" as="geometry" />
        </mxCell>
        <mxCell id="qpZ_DzZxJ8dWOxUiVUUP-99" style="edgeStyle=none;curved=0;rounded=0;orthogonalLoop=1;jettySize=auto;html=1;exitX=0.5;exitY=1;exitDx=0;exitDy=0;entryX=0.5;entryY=0;entryDx=0;entryDy=0;fontSize=12;startSize=8;endSize=4;" edge="1" parent="1" source="qpZ_DzZxJ8dWOxUiVUUP-74" target="qpZ_DzZxJ8dWOxUiVUUP-70">
          <mxGeometry relative="1" as="geometry" />
        </mxCell>
        <mxCell id="qpZ_DzZxJ8dWOxUiVUUP-74" value="lnd" style="rounded=1;whiteSpace=wrap;html=1;fillColor=#F4F27E;strokeColor=#5E5709;fontColor=none;noLabel=1;" vertex="1" parent="1">
          <mxGeometry x="100" y="490" width="110" height="30" as="geometry" />
        </mxCell>
        <mxCell id="qpZ_DzZxJ8dWOxUiVUUP-76" style="edgeStyle=none;curved=0;rounded=0;orthogonalLoop=1;jettySize=auto;html=1;exitX=0.5;exitY=1;exitDx=0;exitDy=0;entryX=0.5;entryY=0;entryDx=0;entryDy=0;fontSize=12;startSize=8;endSize=4;" edge="1" parent="1" source="qpZ_DzZxJ8dWOxUiVUUP-77" target="qpZ_DzZxJ8dWOxUiVUUP-74">
          <mxGeometry relative="1" as="geometry" />
        </mxCell>
        <mxCell id="qpZ_DzZxJ8dWOxUiVUUP-77" value="lnd-floating-ip" style="rounded=1;whiteSpace=wrap;html=1;fillColor=#fad9d5;strokeColor=#ae4132;" vertex="1" parent="1">
          <mxGeometry x="100" y="450" width="110" height="30" as="geometry" />
        </mxCell>
        <mxCell id="qpZ_DzZxJ8dWOxUiVUUP-78" value="" style="shape=image;verticalLabelPosition=bottom;labelBackgroundColor=default;verticalAlign=top;aspect=fixed;imageAspect=0;image=data:image/png,iVBORw0KGgoAAAANSUhEUgAAAYIAAADhCAMAAADyM0L7AAAAvVBMVEVHcEw3j85Aj88zjsq/2e2bx+c0jsoAWI+/2uyz1Oo0j8s0jck0j8szjcozjsm+2u2/2++/2u2+3+88PDwAVY6/2u2/2u++2u2/3+8yMjKWxOMVU3u/2e00jsq/2u0zjckvPUk0j8pHR0e/2ew2TFkvLy87Ozs6OjoAVo0AVY8AVo2Mv+IzjckuLi6ZxuS+2ewAVY1NTU211Oo5T109k8wQZ6GGu98EW5Mogr0ddbBSntJzsdpGRkZlqdekzOfReEkVAAAALHRSTlMAIhDvgEC/QL+/QH5en99oQu8Q/r/PMJ8g+/r+38+PryuP2a8Qn4pbqliAt2hOFAgAAAhpSURBVHgB7dkHdttaEoThBoWRmQFCw6AsOQdaMGk5h/0va17OpvFrClDrvq4l8DvFc7tgdvHo8OX3c/DowvQZn5+ud2RvfzLumTTFi8HV7nz9uq1vmP4PyfOiXBnKxQ8AzfLYxMlO1w1yKURYHF01yT8jkMyXRWlN8+hl4zwxaXp760Y5zUyU6geBZqkV6ecLa5LD5gT3TZrRumGmqh4sr5rma63JybJBGV6CmDR766aZmCa7S4BqABTylVeCbN08mSmyuGqebS3MsvRJMAQEmhr8R0XA0y99EoAMnRHwLFf+CO69BwT73gh4Zrk/gje8Bp4IeOYLbwSveA18EfAU3gj0NfBOUD+ofBG8+gAIpkkQ1POVL4J3a5BxEgT1bOGKgNfAPwEycEDAa+CfgBg4IEA12Ov5J0AGDghoDUa+CYDByhHBqzf6GvgnqOeVIwJ0n41SIagfOCHgNchSIagLHwS8BpNkCGYLPwRspshSIajnjgh4DZIgqAtHBLwGSRDMKicE9D7bT4agXjohwPfZMBmCeuWHgNcgDYKlIwJegyQI6pULAl6D03QIzhwR8NE6CYJZ5YKAP0ynyRDUhQ8Cfp+NkyHoOyHgNeilQlCvHBHw0ToJgsITAf92kwJB3xMBr0EKBHXliYDXIAWC0gkBv88uOyCY9xtndvPrzBXBO91oLSCYr4xkUZyd3IRg7oWA12DSNkFpOIvljBu4INDXQEAws5ukOsMEpRcCXoPzdgkGdrOUtAiFLwI+WrsjsAU0OPNFgB6m+z4JrGQEfT8E/D4b+iSwHBHMvBHwGvgjqGbIwBsBH639EcAarLwRoNHaKcEKEZTeCHgN/BHY/G4TvOM1cEeQE4LcEwG/z0Y+Cco7TvCOj9beCOyOE/Aa+COY3XECXgN3BP07TkBroCcIAj5aeyMgm3XfGQG/zyYeCfK7TMDvs0xPEAS4BnqCIKA10BMEARyt9QRBQL/d6AmC4B2pgZggCPh9NtQTBAEerfUEQYBqMNYTBAGugZ4gCGgN9ARBwEZrLUEQ8PtspCUIAn6f7fX0BEGAa6AnCAJaAz1BEMDRWk8QBHS01hMEwTteA04QBLL7LNMTBAEerfUEQcBHa04QBPoacIIg0NeAEwSBvgacIAgE99mYEwSB9j6b6gmCgNdATxAEtAZ6giCAo7WeIAhe3Ruz0VpPEAR2ymqgJwiCIauBniAIbL+xwWUQtEMwZKO1niAI7Jx9u9ETBEHGaqAnCAKbsBroCYIgY6O1niAIbMRGaz1BEPT2UA30BEFAa6AnCAJQg3EQtEJgYzZa6wmCwKasBnqCIIA10BMEAR2t9QRBAEdrPUEQgNF6pCcIAl4DPUEQ4BroCYIga16DTE8QBHy01hMEAf12oycIArtkNdATBAFY6zI9QRDw0VpPEASkBkM9QRDwGugJgoCM1kM9QRCw0fo0CPQEsAbjINAS8LVuGgRiAr7WjYNATwBr0AsCPQEfrYNAScBH614QaAn4aD0KAj0Br0EQ6An4aB0EYgI+WgeBjoCvdZMg0BPwGgSBnoDU4DwI9AR8tA4CJQEfrfeDQE9Aa9AOQRAMQQ2CQEzAR+sg0BOwGuydvg0CPQGqwfpjKwRBkK2b51MQSAn4aL2+DgI9gb4GQcAJUA2OgkBKwNe69Zc2CILARvoaBAEj0NcgCCABqcH6bRsEQWBT9X0WBJRgzGsQBJxAX4Mg4AT6GgQBJNCsddetEATBkM8UQcAJ9DUIAkqgWuu+BIGegK91QaAn4DUIAjEBqsHbINAS8LXuYxDoCfhaFwR6Al6DIOAE+hoEASfQr3VBwAn0a10QqAhIDa6DQE8Aa/ApCDiBeK07CgJOoB2tvwSBnkBRAwHBEhA8SI+A10BP0AcEeXoENgEGb4OAEqhH64/tENTpE+hrICVY/esJMr7WaQnK9An0a52W4IwQFEkS8NFaS3BCCMokCVANPskJFnUQWI+vdUKCJSKo0iTga52QYFWjWHoEfLQ+0hL0kcA8WQJSgy9SgqJG6TOCh14J9GvdoCOBOmcE91wQ6Ne6jzqCsxqmYARPPBKAGoD7bHuzCpzUNAtG8Ng/gaoG28JoVj8A8BgiOLj/0CmBfq3bzorKmqYqy3x5Ut8kfURwsNncf3LhkkA/Wm/rbpITgs8bbV7rCYQ16IqgBARAwAEBHq2vb4dgZj+ECzgk0K91HRE8aE7ABTwQ9HgNOiYomhIc6gHEBIIafLkNgqohARfwQtDja12nBEtrRnCwcU+gX+u6ISibEXABHwR8tH7bNcGJ/RS9gCsCUoOPXRMUjQg+b+42gZ3y+6wrglnVhIALeCPga11nBLn9HC7gkEA/Wm+7K4FxAf8Eghp0QPDbHK4/B5wR2DmfKbogOLFfoxfwRpABguvuCMrvEhxsEiDgo/WnrgjO7LfoBdwRoBocdUNwUu0m4AKeCfha1wFBad8h+LxJhYCP1kddEBT2h+gF/BGwGnRAsLQ/Ri/gkIDUYP22dYK57SY45AKuCfha1zbBvNpNoD8HPBDYFNZg252A6QVcEtAabLsTMP4YdUigH6233QmYXsAnwRDNFK0RLM12EnzeJEnAR+tPbREU9g/RCzglQDVoh+BkYf8ULuCPQD9af2mD4KyyfwwXcEigX+v0BPPSvhH9QeaQgI/WV2KAk8K+GcE50D7BhSmS7d0WwUle2bcjfoyCAAID0ax1WyHAvLCdOdQKgBw3FnhqkoCH6XWtymxZ2nfySC8g/yd6ZqL0Tpvex9rff3cu9E8hdQ2emi6XzVYixc/fzxfWLPc3G98Gz02ZYYPz4NO2/r8y7+fFwprn4ePbQ3j9+vi3/Pef8vT5s4cmTm88muzvyItB/2bJf0hRlpWx/A/d5zdnsIMmmAAAAABJRU5ErkJggg==;shadow=0;" vertex="1" parent="1">
          <mxGeometry x="137.85" y="495" width="34.3" height="20" as="geometry" />
        </mxCell>
        <mxCell id="qpZ_DzZxJ8dWOxUiVUUP-79" value="" style="shape=image;verticalLabelPosition=bottom;labelBackgroundColor=default;verticalAlign=top;aspect=fixed;imageAspect=0;image=data:image/png,iVBORw0KGgoAAAANSUhEUgAAASwAAABrBAMAAAA/eaImAAAAMFBMVEVHcEz///////////////////////////////////////////////////////////9EPuwCAAAAD3RSTlMA75Yp3lkHFrb4QM2EcKYZFtKhAAAI8klEQVR4Ae2aBXAruR3GNW/frd9soMzglLnxMTNjHr9y4Jh9V+ZjvnP5+NbHzMzMzFBmrsd5m5lQ86+zGuXzN5LsbOuZuDP5DXmW9En6kySrdmONbWrs3H6ypEZ1Xta8rHlZ87LmZbWtrPDT//rXvxa3naxcLCI9bScrkHlZsydqtazcL63HnhzI/uUWy8rdO2F5Vd+7iyojXa2VFT4rYwXbTt6Tdbw6WytruYg842hiJ5WNBS2V9T2psZ1K2fN3F6mUPaTGn1UmulspK8pLjZF0Nq/KS/Xj6dVfS42krLKwqIWywqclVTCgVO6F9OedxdrPvvTnWZnMq6OFsr4hmh4VfEw0byyobtEcqzKwsHWygrtFMxJUxHBO4deimcgSJQZbJ2sdI2WsJOC02PzaWs2eQ/4XWVG9rCAvjUkKykluoxWXfU0x3/TLCje68HPru67XPrOeLWtNaYJ7uIJX3iEiP7zjIrq6uU9W8Ksdp+fj7c8rJjzv1mktd5Snn4Es43CNSBzW9V1jkNUPmIYv/OV9f0k/9q7bNYfZj2snB8H7TBsvsaxF0pzfWKoOxMyP/R4BntlCGdaKxUAJLfirCHTlYsjKVaQZw0XLZ/oEVJ9pJutQqKqxbX0mBhOFELJqTTQz+epiy0q5K1NFvyx0AnyYA6bh7L3yAlnq3MwWv7EwNzeUFfaKgSNhxHLlWMgyGdFPleMDv4B2/LK+YXfUPR4JyVL90ogzFIPP/eT2LUVzTANZOeOE4E26d7E4gCz+4MQveWzvgR6Kv8ljX1PhusenvycbyPq2+e6nzt/oC6nEscUUMM98csUXPxGTLDt0jZbVfkhCuq5gvqKvr9QaK2lD5ZphP1Ej/dIdT2hSDw1LJvnPxKlJanXXIsdB7r5RNf12VGqUekqpkIfIkW8y9xDleSp+VEQ8OgYVI8JYdDfJ4vQzUaZnptnetYqQd/LbI15Z/cLVZNSXFHFDJgocoSErwBwmi/kZuDM4BO4Jy50YcMnCVN2MK98+w3NjY8iCrQhX7t/DxZsUUaHBMsV12SNrgdW1sIw1Et+o1MsKMWE7KbAE5jZgFUWyWIH9pcZhHlkbkiHQoOMGugBZ3WjfSKeaFSECqX3KEnoqy+KxxRIUPG082K5OMQfkXJohMYxYFdXbFNDDPeKWFcQmrFlL9rQIUD5ZiLVvUcyrouHO9vL4mY5N2bJgQds563buHsuCwcOHOfWxBYRp3ipaJWnilrUHWSLbAnePZYUl5E937mNTimjssQobKzplXU2Jgop+vMSy8NMRzTmgldlbxh0r/DLJoin/t7LpR3ddsjo9g8Xh/xmeFdgKvvGMU9bd8FKmF77kl4XBclvXM+yIv/HutUEWdnjlGgV8eiELGc6E7U3+9bLSbPqvdOV0qSWr32HCEaRCFu7AsEEYIwb7ZJkSaCg2seuA9BdEL+YoWHDs4x7mktXFlgkC0uuVNaGd0jhZxdhjH2RpSogPmCozU5asbvY3UoDP+j1xAl3DSzoWm4uwierazEamFLVkdbjiA0aj4JSF2ZdkJvQdpr+m+x/mSRZ0Mi5Z2Fca9W1mjg00kmWeSJ1M3mpinZyqp4e6FeYzyRp0RCfMbtUvK0Dau9qIUd9Pf63G3SLMKLusYd9mZqK8ssLYTJNrtNbg+tovi02eU8xkZlnwtWecttUJh2gm67BMsjqaySpJSo/TE7uRqpvJ+k1rR6vXzIErbi2UlEmWNfZ+B4v/C9tqYPIlmTGpIVOhpvH+w6a3IqPkifAAomWeOKD2vsJU7OPOnNhv1uOvfU2FiFtGJdGyuHXUNjuKgWsilB+Gn2yzAzJ/WTnIEOWNLxWdskoCrC5BBJWoJSooiAw5Ee5ly8JY8LuU58EkKojfzFZWJ7fOCtA9lvVrAZTNqU88zf2I6E1kofV7fB3uccrqp7jjDnpgHNXp6tnKCnzVaUg3WNbmArBk45U6OBW1/ORsZCGHnJqtaB7kObJ52s7FC9i3msmq4NOzXmLQScGEb0HOsxyxETeT1e/oBW6MumTBoqkpfgw8gzBPawOiYjpA+zKLfcvXgktWxLnWafGgQKPvlcWiu7EH4fp2j0sWT9KPcR8rdZDADZyHU0Y0x48IIY/pcrS5j5aFeOrOqCWOpui/P6D+Gk4Nj+NtLCxs0SbvBmI4MNHcUzCOUOR2LljyOI24tekXFNDnxQocZCrhPRz1Jdifi2LMkzstItoOU2FlbQufux30vhOXcyUjq5PHw9Fz8Aw71+SAAsEJKLBoeWsGV67HlQPiYeitYnrXESNLT7AGm9j22QaaQtg4UuHJj43y4PRwSKbDv+huHYuimLcgD4yNLO3P4AP1usLNcAMTg1msPoyDXQS9Lsvz9ucCN6gYU+ul7u2JwxXt7cnHZyz/7Q+upzS7f+Fwc/GMpXlOX/tISvXjA6n8Tac/eBMczLQVnndY/aCPrsLRzlT97ujRRaXCTfrEyNLePrGyPgmN7fC72hnSp2+Icakn7QnmBSdxb3/ycxf+4ihBfMX4X/fiLw6XU3nvbodP3ncUqijsJSen/OVa3XhFtKwgri42ZsmQUR2Yh2nhKA4g7VHRMeI7RR1b7DzGfOfVZuXz9M3oIsFhdGNYC20Dg8WOs8lhuBizk7FDIilsbmQdOgCft0AkDPWpN3xcAI7fcFSjSRCQCHNa8lkhjlX7YvnKur3DwFwuhDkt1JYMiuz7OIZzHaG/R6mFkIUugqYrovBZVlUgh7C6hFhDkUV9T8BUQUe9KmcuJ8jxjPn7GY51XTOMtcVVuJY8rMAl6H5ZBwbIYkNl/EvC88wMnPmYYtbKS0r933y+e7xo3ruSntXxypxkR7Xg9KS3POaE5CP4wonvOP3Ndz1ol177PXXt6T+57jV6NXfl37fERRA8d9Q7fngXXwaXips3qTmli2MeO80cst8HxWari9Scs+nhwrz3edUWrPtRTGVy0jLVNnRwBd0uLOJVY7vQjSrr/3W05m1rD942ahe+z5ts7UI/1+HtQok3StqEIOZVdJsQHTWj6q6CaiO+9dxfbtj5iAfPn8Ox+g8yWXVgcFn/qwAAAABJRU5ErkJggg==;shadow=0;fillColor=#b1ddf0;strokeColor=#10739e;" vertex="1" parent="1">
          <mxGeometry x="126.95" y="535" width="56.1" height="20" as="geometry" />
        </mxCell>
        <mxCell id="qpZ_DzZxJ8dWOxUiVUUP-100" value="&lt;div&gt;lndetcd2&lt;/div&gt;" style="rounded=1;whiteSpace=wrap;html=1;align=center;verticalAlign=top;labelPosition=center;verticalLabelPosition=middle;spacingLeft=0;arcSize=12;absoluteArcSize=1;fillColor=none;" vertex="1" parent="1">
          <mxGeometry x="240" y="299" width="130" height="151" as="geometry" />
        </mxCell>
        <mxCell id="qpZ_DzZxJ8dWOxUiVUUP-105" value="etcd" style="rounded=1;whiteSpace=wrap;html=1;fillColor=#B5DCF3;strokeColor=#2671A1;fontColor=none;noLabel=1;" vertex="1" parent="1">
          <mxGeometry x="250" y="409" width="110" height="30" as="geometry" />
        </mxCell>
        <mxCell id="qpZ_DzZxJ8dWOxUiVUUP-107" style="edgeStyle=none;curved=0;rounded=0;orthogonalLoop=1;jettySize=auto;html=1;exitX=0.5;exitY=1;exitDx=0;exitDy=0;entryX=0.5;entryY=0;entryDx=0;entryDy=0;fontSize=12;startSize=8;endSize=4;" edge="1" parent="1" source="qpZ_DzZxJ8dWOxUiVUUP-108" target="qpZ_DzZxJ8dWOxUiVUUP-105">
          <mxGeometry relative="1" as="geometry" />
        </mxCell>
        <mxCell id="qpZ_DzZxJ8dWOxUiVUUP-108" value="lnd" style="rounded=1;whiteSpace=wrap;html=1;fillColor=#F4F27E;strokeColor=#5E5709;fontColor=none;noLabel=1;" vertex="1" parent="1">
          <mxGeometry x="250" y="369" width="110" height="30" as="geometry" />
        </mxCell>
        <mxCell id="qpZ_DzZxJ8dWOxUiVUUP-109" style="edgeStyle=none;curved=0;rounded=0;orthogonalLoop=1;jettySize=auto;html=1;exitX=0.5;exitY=1;exitDx=0;exitDy=0;entryX=0.5;entryY=0;entryDx=0;entryDy=0;fontSize=12;startSize=8;endSize=4;" edge="1" parent="1" source="qpZ_DzZxJ8dWOxUiVUUP-110" target="qpZ_DzZxJ8dWOxUiVUUP-108">
          <mxGeometry relative="1" as="geometry" />
        </mxCell>
        <mxCell id="qpZ_DzZxJ8dWOxUiVUUP-110" value="lnd-floating-ip" style="rounded=1;whiteSpace=wrap;html=1;fillColor=#fad9d5;strokeColor=#ae4132;" vertex="1" parent="1">
          <mxGeometry x="250" y="329" width="110" height="30" as="geometry" />
        </mxCell>
        <mxCell id="qpZ_DzZxJ8dWOxUiVUUP-111" value="" style="shape=image;verticalLabelPosition=bottom;labelBackgroundColor=default;verticalAlign=top;aspect=fixed;imageAspect=0;image=data:image/png,iVBORw0KGgoAAAANSUhEUgAAAYIAAADhCAMAAADyM0L7AAAAvVBMVEVHcEw3j85Aj88zjsq/2e2bx+c0jsoAWI+/2uyz1Oo0j8s0jck0j8szjcozjsm+2u2/2++/2u2+3+88PDwAVY6/2u2/2u++2u2/3+8yMjKWxOMVU3u/2e00jsq/2u0zjckvPUk0j8pHR0e/2ew2TFkvLy87Ozs6OjoAVo0AVY8AVo2Mv+IzjckuLi6ZxuS+2ewAVY1NTU211Oo5T109k8wQZ6GGu98EW5Mogr0ddbBSntJzsdpGRkZlqdekzOfReEkVAAAALHRSTlMAIhDvgEC/QL+/QH5en99oQu8Q/r/PMJ8g+/r+38+PryuP2a8Qn4pbqliAt2hOFAgAAAhpSURBVHgB7dkHdttaEoThBoWRmQFCw6AsOQdaMGk5h/0va17OpvFrClDrvq4l8DvFc7tgdvHo8OX3c/DowvQZn5+ud2RvfzLumTTFi8HV7nz9uq1vmP4PyfOiXBnKxQ8AzfLYxMlO1w1yKURYHF01yT8jkMyXRWlN8+hl4zwxaXp760Y5zUyU6geBZqkV6ecLa5LD5gT3TZrRumGmqh4sr5rma63JybJBGV6CmDR766aZmCa7S4BqABTylVeCbN08mSmyuGqebS3MsvRJMAQEmhr8R0XA0y99EoAMnRHwLFf+CO69BwT73gh4Zrk/gje8Bp4IeOYLbwSveA18EfAU3gj0NfBOUD+ofBG8+gAIpkkQ1POVL4J3a5BxEgT1bOGKgNfAPwEycEDAa+CfgBg4IEA12Ov5J0AGDghoDUa+CYDByhHBqzf6GvgnqOeVIwJ0n41SIagfOCHgNchSIagLHwS8BpNkCGYLPwRspshSIajnjgh4DZIgqAtHBLwGSRDMKicE9D7bT4agXjohwPfZMBmCeuWHgNcgDYKlIwJegyQI6pULAl6D03QIzhwR8NE6CYJZ5YKAP0ynyRDUhQ8Cfp+NkyHoOyHgNeilQlCvHBHw0ToJgsITAf92kwJB3xMBr0EKBHXliYDXIAWC0gkBv88uOyCY9xtndvPrzBXBO91oLSCYr4xkUZyd3IRg7oWA12DSNkFpOIvljBu4INDXQEAws5ukOsMEpRcCXoPzdgkGdrOUtAiFLwI+WrsjsAU0OPNFgB6m+z4JrGQEfT8E/D4b+iSwHBHMvBHwGvgjqGbIwBsBH639EcAarLwRoNHaKcEKEZTeCHgN/BHY/G4TvOM1cEeQE4LcEwG/z0Y+Cco7TvCOj9beCOyOE/Aa+COY3XECXgN3BP07TkBroCcIAj5aeyMgm3XfGQG/zyYeCfK7TMDvs0xPEAS4BnqCIKA10BMEARyt9QRBQL/d6AmC4B2pgZggCPh9NtQTBAEerfUEQYBqMNYTBAGugZ4gCGgN9ARBwEZrLUEQ8PtspCUIAn6f7fX0BEGAa6AnCAJaAz1BEMDRWk8QBHS01hMEwTteA04QBLL7LNMTBAEerfUEQcBHa04QBPoacIIg0NeAEwSBvgacIAgE99mYEwSB9j6b6gmCgNdATxAEtAZ6giCAo7WeIAhe3Ruz0VpPEAR2ymqgJwiCIauBniAIbL+xwWUQtEMwZKO1niAI7Jx9u9ETBEHGaqAnCAKbsBroCYIgY6O1niAIbMRGaz1BEPT2UA30BEFAa6AnCAJQg3EQtEJgYzZa6wmCwKasBnqCIIA10BMEAR2t9QRBAEdrPUEQgNF6pCcIAl4DPUEQ4BroCYIga16DTE8QBHy01hMEAf12oycIArtkNdATBAFY6zI9QRDw0VpPEASkBkM9QRDwGugJgoCM1kM9QRCw0fo0CPQEsAbjINAS8LVuGgRiAr7WjYNATwBr0AsCPQEfrYNAScBH614QaAn4aD0KAj0Br0EQ6An4aB0EYgI+WgeBjoCvdZMg0BPwGgSBnoDU4DwI9AR8tA4CJQEfrfeDQE9Aa9AOQRAMQQ2CQEzAR+sg0BOwGuydvg0CPQGqwfpjKwRBkK2b51MQSAn4aL2+DgI9gb4GQcAJUA2OgkBKwNe69Zc2CILARvoaBAEj0NcgCCABqcH6bRsEQWBT9X0WBJRgzGsQBJxAX4Mg4AT6GgQBJNCsddetEATBkM8UQcAJ9DUIAkqgWuu+BIGegK91QaAn4DUIAjEBqsHbINAS8LXuYxDoCfhaFwR6Al6DIOAE+hoEASfQr3VBwAn0a10QqAhIDa6DQE8Aa/ApCDiBeK07CgJOoB2tvwSBnkBRAwHBEhA8SI+A10BP0AcEeXoENgEGb4OAEqhH64/tENTpE+hrICVY/esJMr7WaQnK9An0a52W4IwQFEkS8NFaS3BCCMokCVANPskJFnUQWI+vdUKCJSKo0iTga52QYFWjWHoEfLQ+0hL0kcA8WQJSgy9SgqJG6TOCh14J9GvdoCOBOmcE91wQ6Ne6jzqCsxqmYARPPBKAGoD7bHuzCpzUNAtG8Ng/gaoG28JoVj8A8BgiOLj/0CmBfq3bzorKmqYqy3x5Ut8kfURwsNncf3LhkkA/Wm/rbpITgs8bbV7rCYQ16IqgBARAwAEBHq2vb4dgZj+ECzgk0K91HRE8aE7ABTwQ9HgNOiYomhIc6gHEBIIafLkNgqohARfwQtDja12nBEtrRnCwcU+gX+u6ISibEXABHwR8tH7bNcGJ/RS9gCsCUoOPXRMUjQg+b+42gZ3y+6wrglnVhIALeCPga11nBLn9HC7gkEA/Wm+7K4FxAf8Eghp0QPDbHK4/B5wR2DmfKbogOLFfoxfwRpABguvuCMrvEhxsEiDgo/WnrgjO7LfoBdwRoBocdUNwUu0m4AKeCfha1wFBad8h+LxJhYCP1kddEBT2h+gF/BGwGnRAsLQ/Ri/gkIDUYP22dYK57SY45AKuCfha1zbBvNpNoD8HPBDYFNZg252A6QVcEtAabLsTMP4YdUigH6233QmYXsAnwRDNFK0RLM12EnzeJEnAR+tPbREU9g/RCzglQDVoh+BkYf8ULuCPQD9af2mD4KyyfwwXcEigX+v0BPPSvhH9QeaQgI/WV2KAk8K+GcE50D7BhSmS7d0WwUle2bcjfoyCAAID0ax1WyHAvLCdOdQKgBw3FnhqkoCH6XWtymxZ2nfySC8g/yd6ZqL0Tpvex9rff3cu9E8hdQ2emi6XzVYixc/fzxfWLPc3G98Gz02ZYYPz4NO2/r8y7+fFwprn4ePbQ3j9+vi3/Pef8vT5s4cmTm88muzvyItB/2bJf0hRlpWx/A/d5zdnsIMmmAAAAABJRU5ErkJggg==;shadow=0;" vertex="1" parent="1">
          <mxGeometry x="287.85" y="374" width="34.3" height="20" as="geometry" />
        </mxCell>
        <mxCell id="qpZ_DzZxJ8dWOxUiVUUP-112" value="" style="shape=image;verticalLabelPosition=bottom;labelBackgroundColor=default;verticalAlign=top;aspect=fixed;imageAspect=0;image=data:image/png,iVBORw0KGgoAAAANSUhEUgAAASwAAABrBAMAAAA/eaImAAAAMFBMVEVHcEz///////////////////////////////////////////////////////////9EPuwCAAAAD3RSTlMA75Yp3lkHFrb4QM2EcKYZFtKhAAAI8klEQVR4Ae2aBXAruR3GNW/frd9soMzglLnxMTNjHr9y4Jh9V+ZjvnP5+NbHzMzMzFBmrsd5m5lQ86+zGuXzN5LsbOuZuDP5DXmW9En6kySrdmONbWrs3H6ypEZ1Xta8rHlZ87LmZbWtrPDT//rXvxa3naxcLCI9bScrkHlZsydqtazcL63HnhzI/uUWy8rdO2F5Vd+7iyojXa2VFT4rYwXbTt6Tdbw6WytruYg842hiJ5WNBS2V9T2psZ1K2fN3F6mUPaTGn1UmulspK8pLjZF0Nq/KS/Xj6dVfS42krLKwqIWywqclVTCgVO6F9OedxdrPvvTnWZnMq6OFsr4hmh4VfEw0byyobtEcqzKwsHWygrtFMxJUxHBO4deimcgSJQZbJ2sdI2WsJOC02PzaWs2eQ/4XWVG9rCAvjUkKykluoxWXfU0x3/TLCje68HPru67XPrOeLWtNaYJ7uIJX3iEiP7zjIrq6uU9W8Ksdp+fj7c8rJjzv1mktd5Snn4Es43CNSBzW9V1jkNUPmIYv/OV9f0k/9q7bNYfZj2snB8H7TBsvsaxF0pzfWKoOxMyP/R4BntlCGdaKxUAJLfirCHTlYsjKVaQZw0XLZ/oEVJ9pJutQqKqxbX0mBhOFELJqTTQz+epiy0q5K1NFvyx0AnyYA6bh7L3yAlnq3MwWv7EwNzeUFfaKgSNhxHLlWMgyGdFPleMDv4B2/LK+YXfUPR4JyVL90ogzFIPP/eT2LUVzTANZOeOE4E26d7E4gCz+4MQveWzvgR6Kv8ljX1PhusenvycbyPq2+e6nzt/oC6nEscUUMM98csUXPxGTLDt0jZbVfkhCuq5gvqKvr9QaK2lD5ZphP1Ej/dIdT2hSDw1LJvnPxKlJanXXIsdB7r5RNf12VGqUekqpkIfIkW8y9xDleSp+VEQ8OgYVI8JYdDfJ4vQzUaZnptnetYqQd/LbI15Z/cLVZNSXFHFDJgocoSErwBwmi/kZuDM4BO4Jy50YcMnCVN2MK98+w3NjY8iCrQhX7t/DxZsUUaHBMsV12SNrgdW1sIw1Et+o1MsKMWE7KbAE5jZgFUWyWIH9pcZhHlkbkiHQoOMGugBZ3WjfSKeaFSECqX3KEnoqy+KxxRIUPG082K5OMQfkXJohMYxYFdXbFNDDPeKWFcQmrFlL9rQIUD5ZiLVvUcyrouHO9vL4mY5N2bJgQds563buHsuCwcOHOfWxBYRp3ipaJWnilrUHWSLbAnePZYUl5E937mNTimjssQobKzplXU2Jgop+vMSy8NMRzTmgldlbxh0r/DLJoin/t7LpR3ddsjo9g8Xh/xmeFdgKvvGMU9bd8FKmF77kl4XBclvXM+yIv/HutUEWdnjlGgV8eiELGc6E7U3+9bLSbPqvdOV0qSWr32HCEaRCFu7AsEEYIwb7ZJkSaCg2seuA9BdEL+YoWHDs4x7mktXFlgkC0uuVNaGd0jhZxdhjH2RpSogPmCozU5asbvY3UoDP+j1xAl3DSzoWm4uwierazEamFLVkdbjiA0aj4JSF2ZdkJvQdpr+m+x/mSRZ0Mi5Z2Fca9W1mjg00kmWeSJ1M3mpinZyqp4e6FeYzyRp0RCfMbtUvK0Dau9qIUd9Pf63G3SLMKLusYd9mZqK8ssLYTJNrtNbg+tovi02eU8xkZlnwtWecttUJh2gm67BMsjqaySpJSo/TE7uRqpvJ+k1rR6vXzIErbi2UlEmWNfZ+B4v/C9tqYPIlmTGpIVOhpvH+w6a3IqPkifAAomWeOKD2vsJU7OPOnNhv1uOvfU2FiFtGJdGyuHXUNjuKgWsilB+Gn2yzAzJ/WTnIEOWNLxWdskoCrC5BBJWoJSooiAw5Ee5ly8JY8LuU58EkKojfzFZWJ7fOCtA9lvVrAZTNqU88zf2I6E1kofV7fB3uccrqp7jjDnpgHNXp6tnKCnzVaUg3WNbmArBk45U6OBW1/ORsZCGHnJqtaB7kObJ52s7FC9i3msmq4NOzXmLQScGEb0HOsxyxETeT1e/oBW6MumTBoqkpfgw8gzBPawOiYjpA+zKLfcvXgktWxLnWafGgQKPvlcWiu7EH4fp2j0sWT9KPcR8rdZDADZyHU0Y0x48IIY/pcrS5j5aFeOrOqCWOpui/P6D+Gk4Nj+NtLCxs0SbvBmI4MNHcUzCOUOR2LljyOI24tekXFNDnxQocZCrhPRz1Jdifi2LMkzstItoOU2FlbQufux30vhOXcyUjq5PHw9Fz8Aw71+SAAsEJKLBoeWsGV67HlQPiYeitYnrXESNLT7AGm9j22QaaQtg4UuHJj43y4PRwSKbDv+huHYuimLcgD4yNLO3P4AP1usLNcAMTg1msPoyDXQS9Lsvz9ucCN6gYU+ul7u2JwxXt7cnHZyz/7Q+upzS7f+Fwc/GMpXlOX/tISvXjA6n8Tac/eBMczLQVnndY/aCPrsLRzlT97ujRRaXCTfrEyNLePrGyPgmN7fC72hnSp2+Icakn7QnmBSdxb3/ycxf+4ihBfMX4X/fiLw6XU3nvbodP3ncUqijsJSen/OVa3XhFtKwgri42ZsmQUR2Yh2nhKA4g7VHRMeI7RR1b7DzGfOfVZuXz9M3oIsFhdGNYC20Dg8WOs8lhuBizk7FDIilsbmQdOgCft0AkDPWpN3xcAI7fcFSjSRCQCHNa8lkhjlX7YvnKur3DwFwuhDkt1JYMiuz7OIZzHaG/R6mFkIUugqYrovBZVlUgh7C6hFhDkUV9T8BUQUe9KmcuJ8jxjPn7GY51XTOMtcVVuJY8rMAl6H5ZBwbIYkNl/EvC88wMnPmYYtbKS0r933y+e7xo3ruSntXxypxkR7Xg9KS3POaE5CP4wonvOP3Ndz1ol177PXXt6T+57jV6NXfl37fERRA8d9Q7fngXXwaXips3qTmli2MeO80cst8HxWari9Scs+nhwrz3edUWrPtRTGVy0jLVNnRwBd0uLOJVY7vQjSrr/3W05m1rD942ahe+z5ts7UI/1+HtQok3StqEIOZVdJsQHTWj6q6CaiO+9dxfbtj5iAfPn8Ox+g8yWXVgcFn/qwAAAABJRU5ErkJggg==;shadow=0;" vertex="1" parent="1">
          <mxGeometry x="276.95" y="414" width="56.1" height="20" as="geometry" />
        </mxCell>
        <mxCell id="qpZ_DzZxJ8dWOxUiVUUP-114" value="&lt;div&gt;lndetcd3&lt;/div&gt;" style="rounded=1;whiteSpace=wrap;html=1;align=center;verticalAlign=top;labelPosition=center;verticalLabelPosition=middle;spacingLeft=0;arcSize=12;absoluteArcSize=1;fillColor=none;" vertex="1" parent="1">
          <mxGeometry x="390" y="420" width="130" height="151" as="geometry" />
        </mxCell>
        <mxCell id="qpZ_DzZxJ8dWOxUiVUUP-119" value="etcd" style="rounded=1;whiteSpace=wrap;html=1;fillColor=#B5DCF3;strokeColor=#2671A1;fontColor=none;noLabel=1;" vertex="1" parent="1">
          <mxGeometry x="400" y="530" width="110" height="30" as="geometry" />
        </mxCell>
        <mxCell id="qpZ_DzZxJ8dWOxUiVUUP-121" style="edgeStyle=none;curved=0;rounded=0;orthogonalLoop=1;jettySize=auto;html=1;exitX=0.5;exitY=1;exitDx=0;exitDy=0;entryX=0.5;entryY=0;entryDx=0;entryDy=0;fontSize=12;startSize=8;endSize=4;" edge="1" parent="1" source="qpZ_DzZxJ8dWOxUiVUUP-122" target="qpZ_DzZxJ8dWOxUiVUUP-119">
          <mxGeometry relative="1" as="geometry" />
        </mxCell>
        <mxCell id="qpZ_DzZxJ8dWOxUiVUUP-122" value="lnd" style="rounded=1;whiteSpace=wrap;html=1;fillColor=#F4F27E;strokeColor=#5E5709;fontColor=none;noLabel=1;" vertex="1" parent="1">
          <mxGeometry x="400" y="490" width="110" height="30" as="geometry" />
        </mxCell>
        <mxCell id="qpZ_DzZxJ8dWOxUiVUUP-123" style="edgeStyle=none;curved=0;rounded=0;orthogonalLoop=1;jettySize=auto;html=1;exitX=0.5;exitY=1;exitDx=0;exitDy=0;entryX=0.5;entryY=0;entryDx=0;entryDy=0;fontSize=12;startSize=8;endSize=4;" edge="1" parent="1" source="qpZ_DzZxJ8dWOxUiVUUP-124" target="qpZ_DzZxJ8dWOxUiVUUP-122">
          <mxGeometry relative="1" as="geometry" />
        </mxCell>
        <mxCell id="qpZ_DzZxJ8dWOxUiVUUP-124" value="lnd-floating-ip" style="rounded=1;whiteSpace=wrap;html=1;fillColor=#fad9d5;strokeColor=#ae4132;" vertex="1" parent="1">
          <mxGeometry x="400" y="450" width="110" height="30" as="geometry" />
        </mxCell>
        <mxCell id="qpZ_DzZxJ8dWOxUiVUUP-125" value="" style="shape=image;verticalLabelPosition=bottom;labelBackgroundColor=default;verticalAlign=top;aspect=fixed;imageAspect=0;image=data:image/png,iVBORw0KGgoAAAANSUhEUgAAAYIAAADhCAMAAADyM0L7AAAAvVBMVEVHcEw3j85Aj88zjsq/2e2bx+c0jsoAWI+/2uyz1Oo0j8s0jck0j8szjcozjsm+2u2/2++/2u2+3+88PDwAVY6/2u2/2u++2u2/3+8yMjKWxOMVU3u/2e00jsq/2u0zjckvPUk0j8pHR0e/2ew2TFkvLy87Ozs6OjoAVo0AVY8AVo2Mv+IzjckuLi6ZxuS+2ewAVY1NTU211Oo5T109k8wQZ6GGu98EW5Mogr0ddbBSntJzsdpGRkZlqdekzOfReEkVAAAALHRSTlMAIhDvgEC/QL+/QH5en99oQu8Q/r/PMJ8g+/r+38+PryuP2a8Qn4pbqliAt2hOFAgAAAhpSURBVHgB7dkHdttaEoThBoWRmQFCw6AsOQdaMGk5h/0va17OpvFrClDrvq4l8DvFc7tgdvHo8OX3c/DowvQZn5+ud2RvfzLumTTFi8HV7nz9uq1vmP4PyfOiXBnKxQ8AzfLYxMlO1w1yKURYHF01yT8jkMyXRWlN8+hl4zwxaXp760Y5zUyU6geBZqkV6ecLa5LD5gT3TZrRumGmqh4sr5rma63JybJBGV6CmDR766aZmCa7S4BqABTylVeCbN08mSmyuGqebS3MsvRJMAQEmhr8R0XA0y99EoAMnRHwLFf+CO69BwT73gh4Zrk/gje8Bp4IeOYLbwSveA18EfAU3gj0NfBOUD+ofBG8+gAIpkkQ1POVL4J3a5BxEgT1bOGKgNfAPwEycEDAa+CfgBg4IEA12Ov5J0AGDghoDUa+CYDByhHBqzf6GvgnqOeVIwJ0n41SIagfOCHgNchSIagLHwS8BpNkCGYLPwRspshSIajnjgh4DZIgqAtHBLwGSRDMKicE9D7bT4agXjohwPfZMBmCeuWHgNcgDYKlIwJegyQI6pULAl6D03QIzhwR8NE6CYJZ5YKAP0ynyRDUhQ8Cfp+NkyHoOyHgNeilQlCvHBHw0ToJgsITAf92kwJB3xMBr0EKBHXliYDXIAWC0gkBv88uOyCY9xtndvPrzBXBO91oLSCYr4xkUZyd3IRg7oWA12DSNkFpOIvljBu4INDXQEAws5ukOsMEpRcCXoPzdgkGdrOUtAiFLwI+WrsjsAU0OPNFgB6m+z4JrGQEfT8E/D4b+iSwHBHMvBHwGvgjqGbIwBsBH639EcAarLwRoNHaKcEKEZTeCHgN/BHY/G4TvOM1cEeQE4LcEwG/z0Y+Cco7TvCOj9beCOyOE/Aa+COY3XECXgN3BP07TkBroCcIAj5aeyMgm3XfGQG/zyYeCfK7TMDvs0xPEAS4BnqCIKA10BMEARyt9QRBQL/d6AmC4B2pgZggCPh9NtQTBAEerfUEQYBqMNYTBAGugZ4gCGgN9ARBwEZrLUEQ8PtspCUIAn6f7fX0BEGAa6AnCAJaAz1BEMDRWk8QBHS01hMEwTteA04QBLL7LNMTBAEerfUEQcBHa04QBPoacIIg0NeAEwSBvgacIAgE99mYEwSB9j6b6gmCgNdATxAEtAZ6giCAo7WeIAhe3Ruz0VpPEAR2ymqgJwiCIauBniAIbL+xwWUQtEMwZKO1niAI7Jx9u9ETBEHGaqAnCAKbsBroCYIgY6O1niAIbMRGaz1BEPT2UA30BEFAa6AnCAJQg3EQtEJgYzZa6wmCwKasBnqCIIA10BMEAR2t9QRBAEdrPUEQgNF6pCcIAl4DPUEQ4BroCYIga16DTE8QBHy01hMEAf12oycIArtkNdATBAFY6zI9QRDw0VpPEASkBkM9QRDwGugJgoCM1kM9QRCw0fo0CPQEsAbjINAS8LVuGgRiAr7WjYNATwBr0AsCPQEfrYNAScBH614QaAn4aD0KAj0Br0EQ6An4aB0EYgI+WgeBjoCvdZMg0BPwGgSBnoDU4DwI9AR8tA4CJQEfrfeDQE9Aa9AOQRAMQQ2CQEzAR+sg0BOwGuydvg0CPQGqwfpjKwRBkK2b51MQSAn4aL2+DgI9gb4GQcAJUA2OgkBKwNe69Zc2CILARvoaBAEj0NcgCCABqcH6bRsEQWBT9X0WBJRgzGsQBJxAX4Mg4AT6GgQBJNCsddetEATBkM8UQcAJ9DUIAkqgWuu+BIGegK91QaAn4DUIAjEBqsHbINAS8LXuYxDoCfhaFwR6Al6DIOAE+hoEASfQr3VBwAn0a10QqAhIDa6DQE8Aa/ApCDiBeK07CgJOoB2tvwSBnkBRAwHBEhA8SI+A10BP0AcEeXoENgEGb4OAEqhH64/tENTpE+hrICVY/esJMr7WaQnK9An0a52W4IwQFEkS8NFaS3BCCMokCVANPskJFnUQWI+vdUKCJSKo0iTga52QYFWjWHoEfLQ+0hL0kcA8WQJSgy9SgqJG6TOCh14J9GvdoCOBOmcE91wQ6Ne6jzqCsxqmYARPPBKAGoD7bHuzCpzUNAtG8Ng/gaoG28JoVj8A8BgiOLj/0CmBfq3bzorKmqYqy3x5Ut8kfURwsNncf3LhkkA/Wm/rbpITgs8bbV7rCYQ16IqgBARAwAEBHq2vb4dgZj+ECzgk0K91HRE8aE7ABTwQ9HgNOiYomhIc6gHEBIIafLkNgqohARfwQtDja12nBEtrRnCwcU+gX+u6ISibEXABHwR8tH7bNcGJ/RS9gCsCUoOPXRMUjQg+b+42gZ3y+6wrglnVhIALeCPga11nBLn9HC7gkEA/Wm+7K4FxAf8Eghp0QPDbHK4/B5wR2DmfKbogOLFfoxfwRpABguvuCMrvEhxsEiDgo/WnrgjO7LfoBdwRoBocdUNwUu0m4AKeCfha1wFBad8h+LxJhYCP1kddEBT2h+gF/BGwGnRAsLQ/Ri/gkIDUYP22dYK57SY45AKuCfha1zbBvNpNoD8HPBDYFNZg252A6QVcEtAabLsTMP4YdUigH6233QmYXsAnwRDNFK0RLM12EnzeJEnAR+tPbREU9g/RCzglQDVoh+BkYf8ULuCPQD9af2mD4KyyfwwXcEigX+v0BPPSvhH9QeaQgI/WV2KAk8K+GcE50D7BhSmS7d0WwUle2bcjfoyCAAID0ax1WyHAvLCdOdQKgBw3FnhqkoCH6XWtymxZ2nfySC8g/yd6ZqL0Tpvex9rff3cu9E8hdQ2emi6XzVYixc/fzxfWLPc3G98Gz02ZYYPz4NO2/r8y7+fFwprn4ePbQ3j9+vi3/Pef8vT5s4cmTm88muzvyItB/2bJf0hRlpWx/A/d5zdnsIMmmAAAAABJRU5ErkJggg==;shadow=0;" vertex="1" parent="1">
          <mxGeometry x="437.85" y="495" width="34.3" height="20" as="geometry" />
        </mxCell>
        <mxCell id="qpZ_DzZxJ8dWOxUiVUUP-126" value="" style="shape=image;verticalLabelPosition=bottom;labelBackgroundColor=default;verticalAlign=top;aspect=fixed;imageAspect=0;image=data:image/png,iVBORw0KGgoAAAANSUhEUgAAASwAAABrBAMAAAA/eaImAAAAMFBMVEVHcEz///////////////////////////////////////////////////////////9EPuwCAAAAD3RSTlMA75Yp3lkHFrb4QM2EcKYZFtKhAAAI8klEQVR4Ae2aBXAruR3GNW/frd9soMzglLnxMTNjHr9y4Jh9V+ZjvnP5+NbHzMzMzFBmrsd5m5lQ86+zGuXzN5LsbOuZuDP5DXmW9En6kySrdmONbWrs3H6ypEZ1Xta8rHlZ87LmZbWtrPDT//rXvxa3naxcLCI9bScrkHlZsydqtazcL63HnhzI/uUWy8rdO2F5Vd+7iyojXa2VFT4rYwXbTt6Tdbw6WytruYg842hiJ5WNBS2V9T2psZ1K2fN3F6mUPaTGn1UmulspK8pLjZF0Nq/KS/Xj6dVfS42krLKwqIWywqclVTCgVO6F9OedxdrPvvTnWZnMq6OFsr4hmh4VfEw0byyobtEcqzKwsHWygrtFMxJUxHBO4deimcgSJQZbJ2sdI2WsJOC02PzaWs2eQ/4XWVG9rCAvjUkKykluoxWXfU0x3/TLCje68HPru67XPrOeLWtNaYJ7uIJX3iEiP7zjIrq6uU9W8Ksdp+fj7c8rJjzv1mktd5Snn4Es43CNSBzW9V1jkNUPmIYv/OV9f0k/9q7bNYfZj2snB8H7TBsvsaxF0pzfWKoOxMyP/R4BntlCGdaKxUAJLfirCHTlYsjKVaQZw0XLZ/oEVJ9pJutQqKqxbX0mBhOFELJqTTQz+epiy0q5K1NFvyx0AnyYA6bh7L3yAlnq3MwWv7EwNzeUFfaKgSNhxHLlWMgyGdFPleMDv4B2/LK+YXfUPR4JyVL90ogzFIPP/eT2LUVzTANZOeOE4E26d7E4gCz+4MQveWzvgR6Kv8ljX1PhusenvycbyPq2+e6nzt/oC6nEscUUMM98csUXPxGTLDt0jZbVfkhCuq5gvqKvr9QaK2lD5ZphP1Ej/dIdT2hSDw1LJvnPxKlJanXXIsdB7r5RNf12VGqUekqpkIfIkW8y9xDleSp+VEQ8OgYVI8JYdDfJ4vQzUaZnptnetYqQd/LbI15Z/cLVZNSXFHFDJgocoSErwBwmi/kZuDM4BO4Jy50YcMnCVN2MK98+w3NjY8iCrQhX7t/DxZsUUaHBMsV12SNrgdW1sIw1Et+o1MsKMWE7KbAE5jZgFUWyWIH9pcZhHlkbkiHQoOMGugBZ3WjfSKeaFSECqX3KEnoqy+KxxRIUPG082K5OMQfkXJohMYxYFdXbFNDDPeKWFcQmrFlL9rQIUD5ZiLVvUcyrouHO9vL4mY5N2bJgQds563buHsuCwcOHOfWxBYRp3ipaJWnilrUHWSLbAnePZYUl5E937mNTimjssQobKzplXU2Jgop+vMSy8NMRzTmgldlbxh0r/DLJoin/t7LpR3ddsjo9g8Xh/xmeFdgKvvGMU9bd8FKmF77kl4XBclvXM+yIv/HutUEWdnjlGgV8eiELGc6E7U3+9bLSbPqvdOV0qSWr32HCEaRCFu7AsEEYIwb7ZJkSaCg2seuA9BdEL+YoWHDs4x7mktXFlgkC0uuVNaGd0jhZxdhjH2RpSogPmCozU5asbvY3UoDP+j1xAl3DSzoWm4uwierazEamFLVkdbjiA0aj4JSF2ZdkJvQdpr+m+x/mSRZ0Mi5Z2Fca9W1mjg00kmWeSJ1M3mpinZyqp4e6FeYzyRp0RCfMbtUvK0Dau9qIUd9Pf63G3SLMKLusYd9mZqK8ssLYTJNrtNbg+tovi02eU8xkZlnwtWecttUJh2gm67BMsjqaySpJSo/TE7uRqpvJ+k1rR6vXzIErbi2UlEmWNfZ+B4v/C9tqYPIlmTGpIVOhpvH+w6a3IqPkifAAomWeOKD2vsJU7OPOnNhv1uOvfU2FiFtGJdGyuHXUNjuKgWsilB+Gn2yzAzJ/WTnIEOWNLxWdskoCrC5BBJWoJSooiAw5Ee5ly8JY8LuU58EkKojfzFZWJ7fOCtA9lvVrAZTNqU88zf2I6E1kofV7fB3uccrqp7jjDnpgHNXp6tnKCnzVaUg3WNbmArBk45U6OBW1/ORsZCGHnJqtaB7kObJ52s7FC9i3msmq4NOzXmLQScGEb0HOsxyxETeT1e/oBW6MumTBoqkpfgw8gzBPawOiYjpA+zKLfcvXgktWxLnWafGgQKPvlcWiu7EH4fp2j0sWT9KPcR8rdZDADZyHU0Y0x48IIY/pcrS5j5aFeOrOqCWOpui/P6D+Gk4Nj+NtLCxs0SbvBmI4MNHcUzCOUOR2LljyOI24tekXFNDnxQocZCrhPRz1Jdifi2LMkzstItoOU2FlbQufux30vhOXcyUjq5PHw9Fz8Aw71+SAAsEJKLBoeWsGV67HlQPiYeitYnrXESNLT7AGm9j22QaaQtg4UuHJj43y4PRwSKbDv+huHYuimLcgD4yNLO3P4AP1usLNcAMTg1msPoyDXQS9Lsvz9ucCN6gYU+ul7u2JwxXt7cnHZyz/7Q+upzS7f+Fwc/GMpXlOX/tISvXjA6n8Tac/eBMczLQVnndY/aCPrsLRzlT97ujRRaXCTfrEyNLePrGyPgmN7fC72hnSp2+Icakn7QnmBSdxb3/ycxf+4ihBfMX4X/fiLw6XU3nvbodP3ncUqijsJSen/OVa3XhFtKwgri42ZsmQUR2Yh2nhKA4g7VHRMeI7RR1b7DzGfOfVZuXz9M3oIsFhdGNYC20Dg8WOs8lhuBizk7FDIilsbmQdOgCft0AkDPWpN3xcAI7fcFSjSRCQCHNa8lkhjlX7YvnKur3DwFwuhDkt1JYMiuz7OIZzHaG/R6mFkIUugqYrovBZVlUgh7C6hFhDkUV9T8BUQUe9KmcuJ8jxjPn7GY51XTOMtcVVuJY8rMAl6H5ZBwbIYkNl/EvC88wMnPmYYtbKS0r933y+e7xo3ruSntXxypxkR7Xg9KS3POaE5CP4wonvOP3Ndz1ol177PXXt6T+57jV6NXfl37fERRA8d9Q7fngXXwaXips3qTmli2MeO80cst8HxWari9Scs+nhwrz3edUWrPtRTGVy0jLVNnRwBd0uLOJVY7vQjSrr/3W05m1rD942ahe+z5ts7UI/1+HtQok3StqEIOZVdJsQHTWj6q6CaiO+9dxfbtj5iAfPn8Ox+g8yWXVgcFn/qwAAAABJRU5ErkJggg==;shadow=0;" vertex="1" parent="1">
          <mxGeometry x="426.95" y="535" width="56.1" height="20" as="geometry" />
        </mxCell>
        <mxCell id="qpZ_DzZxJ8dWOxUiVUUP-129" style="edgeStyle=orthogonalEdgeStyle;rounded=1;orthogonalLoop=1;jettySize=auto;html=1;exitX=0;exitY=0.75;exitDx=0;exitDy=0;entryX=0.5;entryY=0;entryDx=0;entryDy=0;fontSize=12;startSize=6;endSize=6;curved=0;strokeColor=#D79B00;shadow=1;dashed=1;" edge="1" parent="1" source="qpZ_DzZxJ8dWOxUiVUUP-108" target="qpZ_DzZxJ8dWOxUiVUUP-56">
          <mxGeometry relative="1" as="geometry">
            <Array as="points">
              <mxPoint x="230" y="392" />
              <mxPoint x="230" y="460" />
              <mxPoint x="305" y="460" />
            </Array>
          </mxGeometry>
        </mxCell>
        <mxCell id="qpZ_DzZxJ8dWOxUiVUUP-56" value="bitcoind" style="rounded=1;whiteSpace=wrap;html=1;fillColor=#fad7ac;strokeColor=#b46504;" vertex="1" parent="1">
          <mxGeometry x="250" y="650" width="110" height="30" as="geometry" />
        </mxCell>
        <mxCell id="qpZ_DzZxJ8dWOxUiVUUP-64" value="" style="shape=image;verticalLabelPosition=bottom;labelBackgroundColor=default;verticalAlign=top;aspect=fixed;imageAspect=0;image=data:image/svg+xml,PHN2ZyB4bWw6c3BhY2U9InByZXNlcnZlIiB2aWV3Qm94PSItMzQgLTM0IDU4MCA1ODAiIGhlaWdodD0iMTAyNHB4IiB3aWR0aD0iMTAyNHB4IiB5PSIwcHgiIHg9IjBweCIgeG1sbnM6eGxpbms9Imh0dHA6Ly93d3cudzMub3JnLzE5OTkveGxpbmsiIHhtbG5zPSJodHRwOi8vd3d3LnczLm9yZy8yMDAwL3N2ZyIgaWQ9InN2ZzIiIHZlcnNpb249IjEuMSI+JiN4YTsmI3hhOwkmI3hhOwk8ZmlsdGVyIGlkPSJkcm9wU2hhZG93QWxwaGEiPiYjeGE7CQk8ZmVDb2xvck1hdHJpeCB2YWx1ZXM9IjAuMSIgdHlwZT0ic2F0dXJhdGUiIGluPSJTb3VyY2VBbHBoYSIgcmVzdWx0PSJtYXRyaXhPdXQiLz4mI3hhOwkJPGZlR2F1c3NpYW5CbHVyIHN0ZERldmlhdGlvbj0iNiIgcmVzdWx0PSJibHVyLW91dCIgaW49Im1hdHJpeE91dCIvPiYjeGE7CQk8ZmVDb2xvck1hdHJpeCB2YWx1ZXM9IjAgMCAwIDAgICAwICAgICAgICAgICAgICAgICAwIDAgMCAwICAgMCAgICAgICAgICAgICAgICAgIDAgMCAwIDAgICAwICAgICAgICAgICAgICAgICAgMCAwIDAgMC4zNSAwIiB0eXBlPSJtYXRyaXgiIHJlc3VsdD0iY29sb3Itb3V0IiBpbj0iYmx1ci1vdXQiLz4mI3hhOwkJPGZlQmxlbmQgbW9kZT0ibm9ybWFsIiBpbjI9ImNvbG9yLW91dCIgaW49IlNvdXJjZUdyYXBoaWMiLz4mI3hhOwk8L2ZpbHRlcj4mI3hhOwkmI3hhOwk8Zz4mI3hhOwkJJiN4YTsJCTxjaXJjbGUgZmlsbD0id2hpdGUiIHN0cm9rZS13aWR0aD0iMiIgcj0iMjAwIiBjeT0iMjU1IiBjeD0iMjU1Ii8+JiN4YTsJJiN4YTsJCTxyYWRpYWxHcmFkaWVudCBncmFkaWVudFVuaXRzPSJ1c2VyU3BhY2VPblVzZSIgcj0iMzQuMzk2OSIgY3k9IjE5Ni40NDEyIiBjeD0iMjc3LjQ5MDUiIGlkPSJpbm5lckJ0b3AiPiYjeGE7CQkJPHN0b3Agc3R5bGU9InN0b3AtY29sb3I6I0Y5QUE0QiIgb2Zmc2V0PSIwIi8+JiN4YTsJCQk8c3RvcCBzdHlsZT0ic3RvcC1jb2xvcjojRjc5MzFBIiBvZmZzZXQ9IjEiLz4mI3hhOwkJPC9yYWRpYWxHcmFkaWVudD4mI3hhOwkJPHBhdGggZD0iTTI1NC42NDcsMTc0LjZsLTEzLjk4Myw1Ni4wOGMxNS44NTUsMy45NTEsNjQuNzM1LDIwLjA3MSw3Mi42NTYtMTEuNjU2ICAgIEMzMjEuNTY4LDE4NS45MjgsMjcwLjUwMywxNzguNTUyLDI1NC42NDcsMTc0LjZ6IiBmaWx0ZXI9InVybCgjZHJvcFNoYWRvd0FscGhhKSIgZmlsbD0idXJsKCNpbm5lckJ0b3ApIi8+JiN4YTsJCSYjeGE7CQk8cmFkaWFsR3JhZGllbnQgZ3JhZGllbnRVbml0cz0idXNlclNwYWNlT25Vc2UiIHI9IjM5LjgzODEiIGN5PSIyODQuNTY3MSIgY3g9IjI2MS45MTUzIiBpZD0iaW5uZXJCYm90dG9tIj4mI3hhOwkJCTxzdG9wIHN0eWxlPSJzdG9wLWNvbG9yOiNGOUFBNEIiIG9mZnNldD0iMCIvPiYjeGE7CQkJPHN0b3Agc3R5bGU9InN0b3AtY29sb3I6I0Y3OTMxQSIgb2Zmc2V0PSIxIi8+JiN4YTsJCTwvcmFkaWFsR3JhZGllbnQ+JiN4YTsJCTxwYXRoIGQ9Ik0yMzMuNjA4LDI1OC45ODRsLTE1LjQyNSw2MS44MzJjMTkuMDQsNC43MjksNzcuNzY5LDIzLjU4NCw4Ni40NDgtMTEuMjk2ICAgIEMzMTMuNzAzLDI3My4xNDQsMjUyLjY0NywyNjMuNzM2LDIzMy42MDgsMjU4Ljk4NHoiIGZpbHRlcj0idXJsKCNkcm9wU2hhZG93QWxwaGEpIiBmaWxsPSJ1cmwoI2lubmVyQmJvdHRvbSkiLz4mI3hhOwkJCQkmI3hhOwkJPHJhZGlhbEdyYWRpZW50IGdyYWRpZW50VW5pdHM9InVzZXJTcGFjZU9uVXNlIiByPSIyNTUuOTg3OCIgY3k9IjI1Ni4wMDI3IiBjeD0iMjU2LjAyNzYiIGlkPSJjb2luU2hhcGUiPiYjeGE7CQkJPHN0b3Agc3R5bGU9InN0b3AtY29sb3I6I0Y5QUE0QiIgb2Zmc2V0PSIwIi8+JiN4YTsJCQk8c3RvcCBzdHlsZT0ic3RvcC1jb2xvcjojRjc5MzFBIiBvZmZzZXQ9IjEiLz4mI3hhOwkJPC9yYWRpYWxHcmFkaWVudD4mI3hhOwkJPHBhdGggZD0iTTMxNy44NzEsNy42NTZjLTEzNy4xMi0zNC4xOTItMjc2LjAyNCw0OS4yOC0zMTAuMiwxODYuNDQgICAgYy0zNC4yMDgsMTM3LjEzNiw0OS4yNTYsMjc2LjA0OCwxODYuMzYsMzEwLjI0YzEzNy4xNiwzNC4xOTksMjc2LjA2My00OS4yNjUsMzEwLjI1Ni0xODYuNDA4ICAgIEM1MzguNDc5LDE4MC43NzYsNDU1LjAyMyw0MS44NDgsMzE3Ljg3MSw3LjY1NnogTTM2OC44MDcsMjE5LjUyOGMtMy42ODgsMjQuOTM2LTE3LjUxMiwzNy4wMDgtMzUuODY0LDQxLjI0ICAgIGMyNS4yLDEzLjEyLDM4LjAyNCwzMy4yMzksMjUuODA5LDY4LjEyYy0xNS4xNiw0My4zMTktNTEuMTc2LDQ2Ljk3Ni05OS4wNzIsMzcuOTEybC0xMS42MjQsNDYuNTg0bC0yOC4wODgtN2wxMS40NzItNDUuOTYgICAgYy03LjI3OS0xLjgwOS0xNC43Mi0zLjcyOS0yMi4zODQtNS44MDlsLTExLjUxMiw0Ni4xNzdsLTI4LjA1Ni03bDExLjYyNC00Ni42NzNjLTYuNTYxLTEuNjgtMTMuMjI1LTMuNDY0LTIwLjAyNC01LjE2OCAgICBsLTM2LjU1Mi05LjExMWwxMy45NDMtMzIuMTUyYzAsMCwyMC42OTYsNS41MDQsMjAuNDE2LDUuMDk2YzcuOTUyLDEuOTY5LDExLjQ4LTMuMjE2LDEyLjg3Mi02LjY3MmwxOC4zNjgtNzMuNjRsMC4wNDgtMC4yICAgIGwxMy4xMDQtNTIuNTY4YzAuMzQ0LTUuOTY4LTEuNzEyLTEzLjQ5Ni0xMy4wODgtMTYuMzM2YzAuNDM5LTAuMjk2LTIwLjQtNS4wNzItMjAuNC01LjA3Mmw3LjQ3Mi0zMGwzOC43MzYsOS42NzNsLTAuMDMyLDAuMTQ0ICAgIGM1LjgyNCwxLjQ0OCwxMS44MjQsMi44MjQsMTcuOTM3LDQuMjE2TDI0NS40MjMsODkuMmwyOC4wNzIsN2wtMTEuMjgsNDUuMjI0YzcuNTM2LDEuNzIxLDE1LjEyLDMuNDU2LDIyLjUwNCw1LjI5N2wxMS4yLTQ0LjkyOSAgICBsMjguMDg4LDdsLTExLjUwNCw0Ni4xNDVDMzQ3Ljk2NywxNjcuMTUyLDM3My45MDQsMTg1LjQ2NCwzNjguODA3LDIxOS41Mjh6IiBmaWx0ZXI9InVybCgjZHJvcFNoYWRvd0FscGhhKSIgZmlsbD0idXJsKCNjb2luU2hhcGUpIi8+JiN4YTsJPC9nPiYjeGE7PC9zdmc+;" vertex="1" parent="1">
          <mxGeometry x="255" y="652.5" width="25" height="25" as="geometry" />
        </mxCell>
        <mxCell id="qpZ_DzZxJ8dWOxUiVUUP-130" value="" style="endArrow=classic;startArrow=classic;html=1;rounded=0;fillColor=#dae8fc;strokeColor=#425875;shadow=1;entryX=0;entryY=0.5;entryDx=0;entryDy=0;exitX=1;exitY=0.5;exitDx=0;exitDy=0;" edge="1" parent="1" source="qpZ_DzZxJ8dWOxUiVUUP-70" target="qpZ_DzZxJ8dWOxUiVUUP-119">
          <mxGeometry width="100" height="100" relative="1" as="geometry">
            <mxPoint x="190" y="699" as="sourcePoint" />
            <mxPoint x="410" y="699" as="targetPoint" />
          </mxGeometry>
        </mxCell>
        <mxCell id="qpZ_DzZxJ8dWOxUiVUUP-131" value="" style="endArrow=classic;startArrow=classic;html=1;rounded=0;fillColor=#dae8fc;strokeColor=#425875;shadow=1;entryX=0;entryY=0.25;entryDx=0;entryDy=0;exitX=0.75;exitY=1;exitDx=0;exitDy=0;" edge="1" parent="1" source="qpZ_DzZxJ8dWOxUiVUUP-105" target="qpZ_DzZxJ8dWOxUiVUUP-119">
          <mxGeometry width="100" height="100" relative="1" as="geometry">
            <mxPoint x="432" y="321.5" as="sourcePoint" />
            <mxPoint x="530" y="411.5" as="targetPoint" />
          </mxGeometry>
        </mxCell>
        <mxCell id="qpZ_DzZxJ8dWOxUiVUUP-132" value="" style="endArrow=classic;startArrow=classic;html=1;rounded=0;fillColor=#dae8fc;strokeColor=#425875;shadow=1;entryX=1;entryY=0.25;entryDx=0;entryDy=0;exitX=0.25;exitY=1;exitDx=0;exitDy=0;" edge="1" parent="1" source="qpZ_DzZxJ8dWOxUiVUUP-105" target="qpZ_DzZxJ8dWOxUiVUUP-70">
          <mxGeometry width="100" height="100" relative="1" as="geometry">
            <mxPoint x="343" y="529" as="sourcePoint" />
            <mxPoint x="420" y="667" as="targetPoint" />
          </mxGeometry>
        </mxCell>
        <mxCell id="qpZ_DzZxJ8dWOxUiVUUP-133" value="" style="sketch=0;points=[[0.5,0,0],[1,0.5,0],[0.5,1,0],[0,0.5,0],[0.145,0.145,0],[0.8555,0.145,0],[0.855,0.8555,0],[0.145,0.855,0]];verticalLabelPosition=bottom;html=1;verticalAlign=top;aspect=fixed;align=center;pointerEvents=1;shape=mxgraph.cisco19.rect;prIcon=router;fillColor=#FAFAFA;strokeColor=#005073;" vertex="1" parent="1">
          <mxGeometry x="280" y="199" width="50" height="50" as="geometry" />
        </mxCell>
        <mxCell id="qpZ_DzZxJ8dWOxUiVUUP-134" value="" style="endArrow=none;html=1;rounded=1;exitX=0.5;exitY=0;exitDx=0;exitDy=0;entryX=0.5;entryY=1;entryDx=0;entryDy=0;entryPerimeter=0;edgeStyle=orthogonalEdgeStyle;curved=0;strokeColor=#808080;" edge="1" parent="1" source="qpZ_DzZxJ8dWOxUiVUUP-100" target="qpZ_DzZxJ8dWOxUiVUUP-133">
          <mxGeometry width="50" height="50" relative="1" as="geometry">
            <mxPoint x="315" y="307" as="sourcePoint" />
            <mxPoint x="315" y="248" as="targetPoint" />
            <Array as="points">
              <mxPoint x="305" y="269" />
              <mxPoint x="305" y="269" />
            </Array>
          </mxGeometry>
        </mxCell>
        <mxCell id="qpZ_DzZxJ8dWOxUiVUUP-135" value="" style="endArrow=none;html=1;rounded=1;exitX=0.5;exitY=0;exitDx=0;exitDy=0;entryX=0.855;entryY=0.8555;entryDx=0;entryDy=0;entryPerimeter=0;edgeStyle=orthogonalEdgeStyle;curved=0;strokeColor=#808080;" edge="1" parent="1" source="qpZ_DzZxJ8dWOxUiVUUP-114" target="qpZ_DzZxJ8dWOxUiVUUP-133">
          <mxGeometry width="50" height="50" relative="1" as="geometry">
            <mxPoint x="315" y="309" as="sourcePoint" />
            <mxPoint x="315" y="259" as="targetPoint" />
            <Array as="points">
              <mxPoint x="455" y="269" />
              <mxPoint x="323" y="269" />
            </Array>
          </mxGeometry>
        </mxCell>
        <mxCell id="qpZ_DzZxJ8dWOxUiVUUP-136" value="" style="endArrow=none;html=1;rounded=1;exitX=0.5;exitY=0;exitDx=0;exitDy=0;entryX=0.145;entryY=0.855;entryDx=0;entryDy=0;entryPerimeter=0;edgeStyle=orthogonalEdgeStyle;curved=0;strokeColor=#808080;" edge="1" parent="1" source="qpZ_DzZxJ8dWOxUiVUUP-65" target="qpZ_DzZxJ8dWOxUiVUUP-133">
          <mxGeometry width="50" height="50" relative="1" as="geometry">
            <mxPoint x="315" y="309" as="sourcePoint" />
            <mxPoint x="315" y="259" as="targetPoint" />
            <Array as="points">
              <mxPoint x="155" y="269" />
              <mxPoint x="287" y="269" />
            </Array>
          </mxGeometry>
        </mxCell>
        <mxCell id="qpZ_DzZxJ8dWOxUiVUUP-137" value="" style="endArrow=none;html=1;rounded=1;entryX=0;entryY=0.5;entryDx=0;entryDy=0;entryPerimeter=0;edgeStyle=orthogonalEdgeStyle;curved=0;strokeColor=#808080;exitX=0;exitY=0.5;exitDx=0;exitDy=0;" edge="1" parent="1" source="qpZ_DzZxJ8dWOxUiVUUP-63" target="qpZ_DzZxJ8dWOxUiVUUP-133">
          <mxGeometry width="50" height="50" relative="1" as="geometry">
            <mxPoint x="570" y="489" as="sourcePoint" />
            <mxPoint x="315" y="259" as="targetPoint" />
            <Array as="points">
              <mxPoint x="70" y="655" />
              <mxPoint x="70" y="224" />
            </Array>
          </mxGeometry>
        </mxCell>
        <mxCell id="qpZ_DzZxJ8dWOxUiVUUP-138" value="Main Datacenter" style="rounded=1;whiteSpace=wrap;html=1;verticalAlign=top;labelBackgroundColor=#EDEDED;fillColor=none;strokeColor=#000000;arcSize=12;absoluteArcSize=1;" vertex="1" parent="1">
          <mxGeometry x="50" y="159" width="490" height="551" as="geometry" />
        </mxCell>
        <mxCell id="qpZ_DzZxJ8dWOxUiVUUP-139" style="rounded=0;orthogonalLoop=1;jettySize=auto;html=1;exitX=0.5;exitY=0;exitDx=0;exitDy=0;entryX=0.5;entryY=1;entryDx=0;entryDy=0;entryPerimeter=0;endArrow=none;endFill=0;strokeColor=#808080;" edge="1" parent="1" source="qpZ_DzZxJ8dWOxUiVUUP-140" target="qpZ_DzZxJ8dWOxUiVUUP-141">
          <mxGeometry relative="1" as="geometry" />
        </mxCell>
        <mxCell id="qpZ_DzZxJ8dWOxUiVUUP-140" value="lndwt" style="rounded=1;whiteSpace=wrap;html=1;align=center;verticalAlign=top;labelPosition=center;verticalLabelPosition=middle;spacingLeft=0;arcSize=6;fillColor=none;" vertex="1" parent="1">
          <mxGeometry x="600" y="339" width="130" height="110" as="geometry" />
        </mxCell>
        <mxCell id="qpZ_DzZxJ8dWOxUiVUUP-141" value="" style="sketch=0;points=[[0.5,0,0],[1,0.5,0],[0.5,1,0],[0,0.5,0],[0.145,0.145,0],[0.8555,0.145,0],[0.855,0.8555,0],[0.145,0.855,0]];verticalLabelPosition=bottom;html=1;verticalAlign=top;aspect=fixed;align=center;pointerEvents=1;shape=mxgraph.cisco19.rect;prIcon=router;fillColor=#FAFAFA;strokeColor=#005073;" vertex="1" parent="1">
          <mxGeometry x="640" y="200" width="50" height="50" as="geometry" />
        </mxCell>
        <mxCell id="qpZ_DzZxJ8dWOxUiVUUP-142" style="edgeStyle=none;curved=0;rounded=0;orthogonalLoop=1;jettySize=auto;html=1;exitX=0.5;exitY=1;exitDx=0;exitDy=0;entryX=0.5;entryY=0;entryDx=0;entryDy=0;fontSize=12;startSize=8;endSize=4;" edge="1" parent="1" source="qpZ_DzZxJ8dWOxUiVUUP-143" target="qpZ_DzZxJ8dWOxUiVUUP-144">
          <mxGeometry relative="1" as="geometry" />
        </mxCell>
        <mxCell id="qpZ_DzZxJ8dWOxUiVUUP-143" value="lnd" style="rounded=1;whiteSpace=wrap;html=1;fillColor=#F4F27E;strokeColor=#5E5709;fontColor=none;noLabel=1;" vertex="1" parent="1">
          <mxGeometry x="610" y="369" width="110" height="30" as="geometry" />
        </mxCell>
        <mxCell id="qpZ_DzZxJ8dWOxUiVUUP-144" value="bitcoind" style="rounded=1;whiteSpace=wrap;html=1;fillColor=#fad7ac;strokeColor=#b46504;glass=0;shadow=0;" vertex="1" parent="1">
          <mxGeometry x="610" y="409" width="110" height="30" as="geometry" />
        </mxCell>
        <mxCell id="qpZ_DzZxJ8dWOxUiVUUP-145" value="" style="shape=image;verticalLabelPosition=bottom;labelBackgroundColor=default;verticalAlign=top;aspect=fixed;imageAspect=0;image=data:image/svg+xml,PHN2ZyB4bWw6c3BhY2U9InByZXNlcnZlIiB2aWV3Qm94PSItMzQgLTM0IDU4MCA1ODAiIGhlaWdodD0iMTAyNHB4IiB3aWR0aD0iMTAyNHB4IiB5PSIwcHgiIHg9IjBweCIgeG1sbnM6eGxpbms9Imh0dHA6Ly93d3cudzMub3JnLzE5OTkveGxpbmsiIHhtbG5zPSJodHRwOi8vd3d3LnczLm9yZy8yMDAwL3N2ZyIgaWQ9InN2ZzIiIHZlcnNpb249IjEuMSI+JiN4YTsmI3hhOwkmI3hhOwk8ZmlsdGVyIGlkPSJkcm9wU2hhZG93QWxwaGEiPiYjeGE7CQk8ZmVDb2xvck1hdHJpeCB2YWx1ZXM9IjAuMSIgdHlwZT0ic2F0dXJhdGUiIGluPSJTb3VyY2VBbHBoYSIgcmVzdWx0PSJtYXRyaXhPdXQiLz4mI3hhOwkJPGZlR2F1c3NpYW5CbHVyIHN0ZERldmlhdGlvbj0iNiIgcmVzdWx0PSJibHVyLW91dCIgaW49Im1hdHJpeE91dCIvPiYjeGE7CQk8ZmVDb2xvck1hdHJpeCB2YWx1ZXM9IjAgMCAwIDAgICAwICAgICAgICAgICAgICAgICAwIDAgMCAwICAgMCAgICAgICAgICAgICAgICAgIDAgMCAwIDAgICAwICAgICAgICAgICAgICAgICAgMCAwIDAgMC4zNSAwIiB0eXBlPSJtYXRyaXgiIHJlc3VsdD0iY29sb3Itb3V0IiBpbj0iYmx1ci1vdXQiLz4mI3hhOwkJPGZlQmxlbmQgbW9kZT0ibm9ybWFsIiBpbjI9ImNvbG9yLW91dCIgaW49IlNvdXJjZUdyYXBoaWMiLz4mI3hhOwk8L2ZpbHRlcj4mI3hhOwkmI3hhOwk8Zz4mI3hhOwkJJiN4YTsJCTxjaXJjbGUgZmlsbD0id2hpdGUiIHN0cm9rZS13aWR0aD0iMiIgcj0iMjAwIiBjeT0iMjU1IiBjeD0iMjU1Ii8+JiN4YTsJJiN4YTsJCTxyYWRpYWxHcmFkaWVudCBncmFkaWVudFVuaXRzPSJ1c2VyU3BhY2VPblVzZSIgcj0iMzQuMzk2OSIgY3k9IjE5Ni40NDEyIiBjeD0iMjc3LjQ5MDUiIGlkPSJpbm5lckJ0b3AiPiYjeGE7CQkJPHN0b3Agc3R5bGU9InN0b3AtY29sb3I6I0Y5QUE0QiIgb2Zmc2V0PSIwIi8+JiN4YTsJCQk8c3RvcCBzdHlsZT0ic3RvcC1jb2xvcjojRjc5MzFBIiBvZmZzZXQ9IjEiLz4mI3hhOwkJPC9yYWRpYWxHcmFkaWVudD4mI3hhOwkJPHBhdGggZD0iTTI1NC42NDcsMTc0LjZsLTEzLjk4Myw1Ni4wOGMxNS44NTUsMy45NTEsNjQuNzM1LDIwLjA3MSw3Mi42NTYtMTEuNjU2ICAgIEMzMjEuNTY4LDE4NS45MjgsMjcwLjUwMywxNzguNTUyLDI1NC42NDcsMTc0LjZ6IiBmaWx0ZXI9InVybCgjZHJvcFNoYWRvd0FscGhhKSIgZmlsbD0idXJsKCNpbm5lckJ0b3ApIi8+JiN4YTsJCSYjeGE7CQk8cmFkaWFsR3JhZGllbnQgZ3JhZGllbnRVbml0cz0idXNlclNwYWNlT25Vc2UiIHI9IjM5LjgzODEiIGN5PSIyODQuNTY3MSIgY3g9IjI2MS45MTUzIiBpZD0iaW5uZXJCYm90dG9tIj4mI3hhOwkJCTxzdG9wIHN0eWxlPSJzdG9wLWNvbG9yOiNGOUFBNEIiIG9mZnNldD0iMCIvPiYjeGE7CQkJPHN0b3Agc3R5bGU9InN0b3AtY29sb3I6I0Y3OTMxQSIgb2Zmc2V0PSIxIi8+JiN4YTsJCTwvcmFkaWFsR3JhZGllbnQ+JiN4YTsJCTxwYXRoIGQ9Ik0yMzMuNjA4LDI1OC45ODRsLTE1LjQyNSw2MS44MzJjMTkuMDQsNC43MjksNzcuNzY5LDIzLjU4NCw4Ni40NDgtMTEuMjk2ICAgIEMzMTMuNzAzLDI3My4xNDQsMjUyLjY0NywyNjMuNzM2LDIzMy42MDgsMjU4Ljk4NHoiIGZpbHRlcj0idXJsKCNkcm9wU2hhZG93QWxwaGEpIiBmaWxsPSJ1cmwoI2lubmVyQmJvdHRvbSkiLz4mI3hhOwkJCQkmI3hhOwkJPHJhZGlhbEdyYWRpZW50IGdyYWRpZW50VW5pdHM9InVzZXJTcGFjZU9uVXNlIiByPSIyNTUuOTg3OCIgY3k9IjI1Ni4wMDI3IiBjeD0iMjU2LjAyNzYiIGlkPSJjb2luU2hhcGUiPiYjeGE7CQkJPHN0b3Agc3R5bGU9InN0b3AtY29sb3I6I0Y5QUE0QiIgb2Zmc2V0PSIwIi8+JiN4YTsJCQk8c3RvcCBzdHlsZT0ic3RvcC1jb2xvcjojRjc5MzFBIiBvZmZzZXQ9IjEiLz4mI3hhOwkJPC9yYWRpYWxHcmFkaWVudD4mI3hhOwkJPHBhdGggZD0iTTMxNy44NzEsNy42NTZjLTEzNy4xMi0zNC4xOTItMjc2LjAyNCw0OS4yOC0zMTAuMiwxODYuNDQgICAgYy0zNC4yMDgsMTM3LjEzNiw0OS4yNTYsMjc2LjA0OCwxODYuMzYsMzEwLjI0YzEzNy4xNiwzNC4xOTksMjc2LjA2My00OS4yNjUsMzEwLjI1Ni0xODYuNDA4ICAgIEM1MzguNDc5LDE4MC43NzYsNDU1LjAyMyw0MS44NDgsMzE3Ljg3MSw3LjY1NnogTTM2OC44MDcsMjE5LjUyOGMtMy42ODgsMjQuOTM2LTE3LjUxMiwzNy4wMDgtMzUuODY0LDQxLjI0ICAgIGMyNS4yLDEzLjEyLDM4LjAyNCwzMy4yMzksMjUuODA5LDY4LjEyYy0xNS4xNiw0My4zMTktNTEuMTc2LDQ2Ljk3Ni05OS4wNzIsMzcuOTEybC0xMS42MjQsNDYuNTg0bC0yOC4wODgtN2wxMS40NzItNDUuOTYgICAgYy03LjI3OS0xLjgwOS0xNC43Mi0zLjcyOS0yMi4zODQtNS44MDlsLTExLjUxMiw0Ni4xNzdsLTI4LjA1Ni03bDExLjYyNC00Ni42NzNjLTYuNTYxLTEuNjgtMTMuMjI1LTMuNDY0LTIwLjAyNC01LjE2OCAgICBsLTM2LjU1Mi05LjExMWwxMy45NDMtMzIuMTUyYzAsMCwyMC42OTYsNS41MDQsMjAuNDE2LDUuMDk2YzcuOTUyLDEuOTY5LDExLjQ4LTMuMjE2LDEyLjg3Mi02LjY3MmwxOC4zNjgtNzMuNjRsMC4wNDgtMC4yICAgIGwxMy4xMDQtNTIuNTY4YzAuMzQ0LTUuOTY4LTEuNzEyLTEzLjQ5Ni0xMy4wODgtMTYuMzM2YzAuNDM5LTAuMjk2LTIwLjQtNS4wNzItMjAuNC01LjA3Mmw3LjQ3Mi0zMGwzOC43MzYsOS42NzNsLTAuMDMyLDAuMTQ0ICAgIGM1LjgyNCwxLjQ0OCwxMS44MjQsMi44MjQsMTcuOTM3LDQuMjE2TDI0NS40MjMsODkuMmwyOC4wNzIsN2wtMTEuMjgsNDUuMjI0YzcuNTM2LDEuNzIxLDE1LjEyLDMuNDU2LDIyLjUwNCw1LjI5N2wxMS4yLTQ0LjkyOSAgICBsMjguMDg4LDdsLTExLjUwNCw0Ni4xNDVDMzQ3Ljk2NywxNjcuMTUyLDM3My45MDQsMTg1LjQ2NCwzNjguODA3LDIxOS41Mjh6IiBmaWx0ZXI9InVybCgjZHJvcFNoYWRvd0FscGhhKSIgZmlsbD0idXJsKCNjb2luU2hhcGUpIi8+JiN4YTsJPC9nPiYjeGE7PC9zdmc+;" vertex="1" parent="1">
          <mxGeometry x="615" y="411.5" width="25" height="25" as="geometry" />
        </mxCell>
        <mxCell id="qpZ_DzZxJ8dWOxUiVUUP-146" value="Watchtower Datacenter" style="rounded=1;whiteSpace=wrap;html=1;verticalAlign=top;textShadow=0;labelBackgroundColor=#ECECEC;labelBorderColor=none;fillColor=none;strokeColor=#000000;arcSize=12;absoluteArcSize=1;" vertex="1" parent="1">
          <mxGeometry x="580" y="159" width="170" height="310" as="geometry" />
        </mxCell>
        <mxCell id="qpZ_DzZxJ8dWOxUiVUUP-147" value="" style="shape=image;verticalLabelPosition=bottom;labelBackgroundColor=default;verticalAlign=top;aspect=fixed;imageAspect=0;image=data:image/png,iVBORw0KGgoAAAANSUhEUgAAAYIAAADhCAMAAADyM0L7AAAAvVBMVEVHcEw3j85Aj88zjsq/2e2bx+c0jsoAWI+/2uyz1Oo0j8s0jck0j8szjcozjsm+2u2/2++/2u2+3+88PDwAVY6/2u2/2u++2u2/3+8yMjKWxOMVU3u/2e00jsq/2u0zjckvPUk0j8pHR0e/2ew2TFkvLy87Ozs6OjoAVo0AVY8AVo2Mv+IzjckuLi6ZxuS+2ewAVY1NTU211Oo5T109k8wQZ6GGu98EW5Mogr0ddbBSntJzsdpGRkZlqdekzOfReEkVAAAALHRSTlMAIhDvgEC/QL+/QH5en99oQu8Q/r/PMJ8g+/r+38+PryuP2a8Qn4pbqliAt2hOFAgAAAhpSURBVHgB7dkHdttaEoThBoWRmQFCw6AsOQdaMGk5h/0va17OpvFrClDrvq4l8DvFc7tgdvHo8OX3c/DowvQZn5+ud2RvfzLumTTFi8HV7nz9uq1vmP4PyfOiXBnKxQ8AzfLYxMlO1w1yKURYHF01yT8jkMyXRWlN8+hl4zwxaXp760Y5zUyU6geBZqkV6ecLa5LD5gT3TZrRumGmqh4sr5rma63JybJBGV6CmDR766aZmCa7S4BqABTylVeCbN08mSmyuGqebS3MsvRJMAQEmhr8R0XA0y99EoAMnRHwLFf+CO69BwT73gh4Zrk/gje8Bp4IeOYLbwSveA18EfAU3gj0NfBOUD+ofBG8+gAIpkkQ1POVL4J3a5BxEgT1bOGKgNfAPwEycEDAa+CfgBg4IEA12Ov5J0AGDghoDUa+CYDByhHBqzf6GvgnqOeVIwJ0n41SIagfOCHgNchSIagLHwS8BpNkCGYLPwRspshSIajnjgh4DZIgqAtHBLwGSRDMKicE9D7bT4agXjohwPfZMBmCeuWHgNcgDYKlIwJegyQI6pULAl6D03QIzhwR8NE6CYJZ5YKAP0ynyRDUhQ8Cfp+NkyHoOyHgNeilQlCvHBHw0ToJgsITAf92kwJB3xMBr0EKBHXliYDXIAWC0gkBv88uOyCY9xtndvPrzBXBO91oLSCYr4xkUZyd3IRg7oWA12DSNkFpOIvljBu4INDXQEAws5ukOsMEpRcCXoPzdgkGdrOUtAiFLwI+WrsjsAU0OPNFgB6m+z4JrGQEfT8E/D4b+iSwHBHMvBHwGvgjqGbIwBsBH639EcAarLwRoNHaKcEKEZTeCHgN/BHY/G4TvOM1cEeQE4LcEwG/z0Y+Cco7TvCOj9beCOyOE/Aa+COY3XECXgN3BP07TkBroCcIAj5aeyMgm3XfGQG/zyYeCfK7TMDvs0xPEAS4BnqCIKA10BMEARyt9QRBQL/d6AmC4B2pgZggCPh9NtQTBAEerfUEQYBqMNYTBAGugZ4gCGgN9ARBwEZrLUEQ8PtspCUIAn6f7fX0BEGAa6AnCAJaAz1BEMDRWk8QBHS01hMEwTteA04QBLL7LNMTBAEerfUEQcBHa04QBPoacIIg0NeAEwSBvgacIAgE99mYEwSB9j6b6gmCgNdATxAEtAZ6giCAo7WeIAhe3Ruz0VpPEAR2ymqgJwiCIauBniAIbL+xwWUQtEMwZKO1niAI7Jx9u9ETBEHGaqAnCAKbsBroCYIgY6O1niAIbMRGaz1BEPT2UA30BEFAa6AnCAJQg3EQtEJgYzZa6wmCwKasBnqCIIA10BMEAR2t9QRBAEdrPUEQgNF6pCcIAl4DPUEQ4BroCYIga16DTE8QBHy01hMEAf12oycIArtkNdATBAFY6zI9QRDw0VpPEASkBkM9QRDwGugJgoCM1kM9QRCw0fo0CPQEsAbjINAS8LVuGgRiAr7WjYNATwBr0AsCPQEfrYNAScBH614QaAn4aD0KAj0Br0EQ6An4aB0EYgI+WgeBjoCvdZMg0BPwGgSBnoDU4DwI9AR8tA4CJQEfrfeDQE9Aa9AOQRAMQQ2CQEzAR+sg0BOwGuydvg0CPQGqwfpjKwRBkK2b51MQSAn4aL2+DgI9gb4GQcAJUA2OgkBKwNe69Zc2CILARvoaBAEj0NcgCCABqcH6bRsEQWBT9X0WBJRgzGsQBJxAX4Mg4AT6GgQBJNCsddetEATBkM8UQcAJ9DUIAkqgWuu+BIGegK91QaAn4DUIAjEBqsHbINAS8LXuYxDoCfhaFwR6Al6DIOAE+hoEASfQr3VBwAn0a10QqAhIDa6DQE8Aa/ApCDiBeK07CgJOoB2tvwSBnkBRAwHBEhA8SI+A10BP0AcEeXoENgEGb4OAEqhH64/tENTpE+hrICVY/esJMr7WaQnK9An0a52W4IwQFEkS8NFaS3BCCMokCVANPskJFnUQWI+vdUKCJSKo0iTga52QYFWjWHoEfLQ+0hL0kcA8WQJSgy9SgqJG6TOCh14J9GvdoCOBOmcE91wQ6Ne6jzqCsxqmYARPPBKAGoD7bHuzCpzUNAtG8Ng/gaoG28JoVj8A8BgiOLj/0CmBfq3bzorKmqYqy3x5Ut8kfURwsNncf3LhkkA/Wm/rbpITgs8bbV7rCYQ16IqgBARAwAEBHq2vb4dgZj+ECzgk0K91HRE8aE7ABTwQ9HgNOiYomhIc6gHEBIIafLkNgqohARfwQtDja12nBEtrRnCwcU+gX+u6ISibEXABHwR8tH7bNcGJ/RS9gCsCUoOPXRMUjQg+b+42gZ3y+6wrglnVhIALeCPga11nBLn9HC7gkEA/Wm+7K4FxAf8Eghp0QPDbHK4/B5wR2DmfKbogOLFfoxfwRpABguvuCMrvEhxsEiDgo/WnrgjO7LfoBdwRoBocdUNwUu0m4AKeCfha1wFBad8h+LxJhYCP1kddEBT2h+gF/BGwGnRAsLQ/Ri/gkIDUYP22dYK57SY45AKuCfha1zbBvNpNoD8HPBDYFNZg252A6QVcEtAabLsTMP4YdUigH6233QmYXsAnwRDNFK0RLM12EnzeJEnAR+tPbREU9g/RCzglQDVoh+BkYf8ULuCPQD9af2mD4KyyfwwXcEigX+v0BPPSvhH9QeaQgI/WV2KAk8K+GcE50D7BhSmS7d0WwUle2bcjfoyCAAID0ax1WyHAvLCdOdQKgBw3FnhqkoCH6XWtymxZ2nfySC8g/yd6ZqL0Tpvex9rff3cu9E8hdQ2emi6XzVYixc/fzxfWLPc3G98Gz02ZYYPz4NO2/r8y7+fFwprn4ePbQ3j9+vi3/Pef8vT5s4cmTm88muzvyItB/2bJf0hRlpWx/A/d5zdnsIMmmAAAAABJRU5ErkJggg==;shadow=0;" vertex="1" parent="1">
          <mxGeometry x="647.85" y="374" width="34.3" height="20" as="geometry" />
        </mxCell>
        <mxCell id="qpZ_DzZxJ8dWOxUiVUUP-148" style="edgeStyle=orthogonalEdgeStyle;rounded=1;orthogonalLoop=1;jettySize=auto;html=1;exitX=1;exitY=0.5;exitDx=0;exitDy=0;entryX=0;entryY=0.75;entryDx=0;entryDy=0;dashed=1;strokeColor=#5E5709;shadow=1;" edge="1" parent="1" source="qpZ_DzZxJ8dWOxUiVUUP-122" target="qpZ_DzZxJ8dWOxUiVUUP-143">
          <mxGeometry relative="1" as="geometry">
            <Array as="points">
              <mxPoint x="560" y="505" />
              <mxPoint x="560" y="392" />
            </Array>
            <mxPoint x="577.5" y="606" as="sourcePoint" />
            <mxPoint x="697.5" y="494" as="targetPoint" />
          </mxGeometry>
        </mxCell>
        <mxCell id="qpZ_DzZxJ8dWOxUiVUUP-149" style="edgeStyle=orthogonalEdgeStyle;rounded=1;orthogonalLoop=1;jettySize=auto;html=1;exitX=1;exitY=0.25;exitDx=0;exitDy=0;entryX=0;entryY=0.25;entryDx=0;entryDy=0;dashed=1;strokeColor=#5E5709;shadow=1;" edge="1" parent="1" source="qpZ_DzZxJ8dWOxUiVUUP-108" target="qpZ_DzZxJ8dWOxUiVUUP-143">
          <mxGeometry relative="1" as="geometry">
            <Array as="points">
              <mxPoint x="560" y="377" />
              <mxPoint x="600" y="376" />
            </Array>
            <mxPoint x="530" y="554" as="sourcePoint" />
            <mxPoint x="630" y="401" as="targetPoint" />
          </mxGeometry>
        </mxCell>
        <mxCell id="qpZ_DzZxJ8dWOxUiVUUP-150" style="edgeStyle=orthogonalEdgeStyle;rounded=1;orthogonalLoop=1;jettySize=auto;html=1;exitX=1;exitY=0.25;exitDx=0;exitDy=0;entryX=0;entryY=0.5;entryDx=0;entryDy=0;dashed=1;strokeColor=#5E5709;shadow=1;" edge="1" parent="1" source="qpZ_DzZxJ8dWOxUiVUUP-74" target="qpZ_DzZxJ8dWOxUiVUUP-143">
          <mxGeometry relative="1" as="geometry">
            <Array as="points">
              <mxPoint x="380" y="498" />
              <mxPoint x="380" y="384" />
            </Array>
            <mxPoint x="380" y="319" as="sourcePoint" />
            <mxPoint x="640" y="319" as="targetPoint" />
          </mxGeometry>
        </mxCell>
      </root>
    </mxGraphModel>
  </diagram>
</mxfile>
